<svg xmlns="http://www.w3.org/2000/svg" viewBox="0 0 1402.98 337.72"><defs><style>.cls-1{fill:#fff;}</style></defs><path class="cls-1" d="M413.73,531.32a22.93,22.93,0,0,1,.5-32.91c9.14-8.61,23.72-7.71,32.6,1.17l17.08,17.07a6.64,6.64,0,0,0,10.25-1.07,161.35,161.35,0,0,0,26.44-97.7c-4.18-80.41-68.2-146.37-148.46-152.9a162.56,162.56,0,0,0-55.7,5.07,4.6,4.6,0,0,0-2.06,7.69l85,85c8.87,8.88,9.77,23.46,1.17,32.6a22.94,22.94,0,0,1-32.92.5L212.44,257.37a21.57,21.57,0,0,0-30-.81l-.32.3a21.51,21.51,0,0,0-.87,30.76l87.13,90.22a22.93,22.93,0,0,1-.51,32.92c-9.14,8.6-23.72,7.7-32.6-1.17l-41-41a4.61,4.61,0,0,0-7.58,1.69A162.28,162.28,0,0,0,177,437.1C182.18,519,249.36,584.78,331.3,588.45a161.38,161.38,0,0,0,99.77-28.72,6.66,6.66,0,0,0,.91-10.16Z" transform="translate(-175.22 -250.89)"/><path class="cls-1" d="M584.87,381.11h16.45c2.61,0,4.17,1.39,4.66,4.17L631.52,484h1.72l25-98.7q1-4.17,5.15-4.17h16.21c2.94,0,3.93,1.39,2.94,4.17L649.44,501.9q-1,4.43-5.4,4.42H620.47q-4.43,0-5.4-4.42L581.92,385.28Q580.94,381.11,584.87,381.11Z" transform="translate(-175.22 -250.89)"/><path class="cls-1" d="M760.16,506.32h-9.57q-18.18,0-28.11-10.07t-10-28V419.16q0-18.17,10-28.11t28.11-9.94h55q4.42,0,4.42,4.17V502.15q0,4.17-4.42,4.17H790.12q-4.18,0-4.18-4.17v-8.84h-1Q779.07,506.32,760.16,506.32Zm25.78-41.74V404.43c0-1.63-.9-2.45-2.7-2.45H754q-17.68,0-17.68,18.16v47.14q0,18.18,17.68,18.17h11.78Q785.94,485.45,785.94,464.58Z" transform="translate(-175.22 -250.89)"/><path class="cls-1" d="M873.83,506.32h0a19.64,19.64,0,0,1-19.64-19.64V337.9a4.17,4.17,0,0,1,4.18-4.17h15.46A4.17,4.17,0,0,1,878,337.9V502.15A4.18,4.18,0,0,1,873.83,506.32Z" transform="translate(-175.22 -250.89)"/><path class="cls-1" d="M1011.07,506.32H958q-18.16,0-28.11-10.07t-9.94-28V419.16q0-18.17,9.94-28.11T958,381.11h20.13q18.17,0,28.24,9.94t10.06,28.11v31.18q0,4.43-4.42,4.42H946.26c-1.81,0-2.7.82-2.7,2.46v10.55q0,17.93,17.92,17.93h49.59q4.42,0,4.42,4.42v12.27Q1015.49,506.32,1011.07,506.32Zm-64.81-68.25H990.2a2.17,2.17,0,0,0,2.46-2.46V419.9q0-9.33-4.17-13.63T975,402h-13.5q-9.33,0-13.5,4.29T943.8,419.9v15.71A2.17,2.17,0,0,0,946.26,438.07Z" transform="translate(-175.22 -250.89)"/><path class="cls-1" d="M1100.93,506.32h-9.58q-18.16,0-28.11-10.07t-9.94-28V419.16q0-18.17,9.94-28.11t28.11-9.94h55c2.94,0,4.42,1.39,4.42,4.17V502.15c0,2.78-1.48,4.17-4.42,4.17h-15.47q-4.17,0-4.17-4.17v-8.84h-1Q1119.84,506.32,1100.93,506.32Zm25.78-41.74V404.43c0-1.63-.9-2.45-2.7-2.45h-29.22q-17.67,0-17.68,18.16v47.14q0,18.18,17.68,18.17h11.79Q1126.71,485.45,1126.71,464.58Z" transform="translate(-175.22 -250.89)"/><path class="cls-1" d="M1213.37,506.32H1197.9q-4.17,0-4.17-4.17V385.28q0-4.17,4.17-4.17h15.47c2.78,0,4.18,1.39,4.18,4.17v9.33h1q2.45-6.14,9.45-9.82a33,33,0,0,1,15.59-3.68h9.08q4.18,0,4.18,4.17v12.77q0,4.67-4.18,3.93h-14.73q-20.37,0-20.37,22.34v77.83C1217.55,504.93,1216.15,506.32,1213.37,506.32Z" transform="translate(-175.22 -250.89)"/><path class="cls-1" d="M1307.89,506.32h-15.47q-4.17,0-4.17-4.17V385.28q0-4.17,4.17-4.17h15.47c2.78,0,4.18,1.39,4.18,4.17v8.84h1q5.9-13,24.79-13h10.81q17.91,0,27.49,9.82t9.58,28.23v83q0,4.17-4.42,4.17h-15.47q-4.17,0-4.17-4.17v-82q0-18.17-17.92-18.16H1332.2q-20.13,0-20.13,20.87v79.3C1312.07,504.93,1310.67,506.32,1307.89,506.32Z" transform="translate(-175.22 -250.89)"/><path class="cls-1" d="M1428.68,360.24V337.9q0-3.93,3.93-3.93h16q3.93,0,3.93,3.93v22.34c0,2.79-1.31,4.17-3.93,4.17h-16C1430,364.41,1428.68,363,1428.68,360.24Zm0,141.91V385.28q0-4.17,3.93-4.17h15.71q4.18,0,4.18,4.17V502.15c0,1.63-.29,2.74-.86,3.31a4.29,4.29,0,0,1-3.07.86h-15.71Q1428.68,506.32,1428.68,502.15Z" transform="translate(-175.22 -250.89)"/><path class="cls-1" d="M1541.62,506.32h-45.18q-4.17,0-4.17-4.17v-12q0-3.93,4.17-3.93h41.25q16,0,16-11.05v-2.95q0-9.81-11.54-15l-26.77-12.77q-12.51-5.9-18.16-13t-5.65-18.66q0-31.66,35.11-31.67h40.75q3.93,0,3.93,4.17v12q0,4.19-3.93,4.18h-35.84q-7.36,0-11.29,2.57a7.79,7.79,0,0,0-3.93,6.76v2.7q0,7.86,12.52,13.74l27,13.75q12.75,5.65,17.55,13.38t4.79,20Q1578.2,506.32,1541.62,506.32Z" transform="translate(-175.22 -250.89)"/></svg>